<?xml version="1.0" encoding="UTF-8"?>
<svg width="300px" height="300px" viewBox="0 0 300 300" version="1.1" xmlns="http://www.w3.org/2000/svg">
    <!-- Background Circle -->
    <circle cx="150" cy="150" r="120" fill="#FFFFFF" opacity="0.9"/>
    
    <!-- Community circle of people -->
    <g transform="translate(150, 150)">
        <!-- Person 1 (Top) -->
        <circle cx="0" cy="-70" r="25" fill="#efc52a"/>
        <circle cx="0" cy="-80" r="15" fill="#efc52a"/>
        <circle cx="-5" cy="-85" r="3" fill="#333"/>
        <circle cx="5" cy="-85" r="3" fill="#333"/>
        <path d="M-5,-75 Q0,-72 5,-75" stroke="#333" stroke-width="2" fill="none"/>
        
        <!-- Person 2 (Right) -->
        <circle cx="60" cy="-30" r="20" fill="#4372c4"/>
        <circle cx="60" cy="-40" r="12" fill="#4372c4"/>
        <circle cx="56" cy="-44" r="2.5" fill="#333"/>
        <circle cx="64" cy="-44" r="2.5" fill="#333"/>
        <path d="M56,-36 Q60,-33 64,-36" stroke="#333" stroke-width="1.5" fill="none"/>
        
        <!-- Person 3 (Bottom Right) -->
        <circle cx="35" cy="35" r="22" fill="#26a6db"/>
        <circle cx="35" cy="25" r="13" fill="#26a6db"/>
        <circle cx="31" cy="21" r="2.5" fill="#333"/>
        <circle cx="39" cy="21" r="2.5" fill="#333"/>
        <path d="M31,29 Q35,32 39,29" stroke="#333" stroke-width="1.5" fill="none"/>
        
        <!-- Person 4 (Bottom Left) -->
        <circle cx="-35" cy="35" r="22" fill="#8044db"/>
        <circle cx="-35" cy="25" r="13" fill="#8044db"/>
        <circle cx="-39" cy="21" r="2.5" fill="#333"/>
        <circle cx="-31" cy="21" r="2.5" fill="#333"/>
        <path d="M-39,29 Q-35,32 -31,29" stroke="#333" stroke-width="1.5" fill="none"/>
        
        <!-- Person 5 (Left) -->
        <circle cx="-60" cy="-30" r="20" fill="#efc52a"/>
        <circle cx="-60" cy="-40" r="12" fill="#efc52a"/>
        <circle cx="-64" cy="-44" r="2.5" fill="#333"/>
        <circle cx="-56" cy="-44" r="2.5" fill="#333"/>
        <path d="M-64,-36 Q-60,-33 -56,-36" stroke="#333" stroke-width="1.5" fill="none"/>
        
        <!-- Connection lines -->
        <line x1="0" y1="-45" x2="0" y2="-45" stroke="#555" stroke-width="2" opacity="0.6"/>
        <line x1="0" y1="-45" x2="42" y2="-30" stroke="#555" stroke-width="2" opacity="0.6"/>
        <line x1="0" y1="-45" x2="-42" y2="-30" stroke="#555" stroke-width="2" opacity="0.6"/>
        <line x1="42" y1="-30" x2="35" y2="15" stroke="#555" stroke-width="2" opacity="0.6"/>
        <line x1="35" y1="15" x2="-35" y2="15" stroke="#555" stroke-width="2" opacity="0.6"/>
        <line x1="-35" y1="15" x2="-42" y2="-30" stroke="#555" stroke-width="2" opacity="0.6"/>
        <line x1="-42" y1="-30" x2="42" y2="-30" stroke="#555" stroke-width="2" opacity="0.6"/>
        <line x1="0" y1="-45" x2="35" y2="15" stroke="#555" stroke-width="2" opacity="0.6"/>
        <line x1="0" y1="-45" x2="-35" y2="15" stroke="#555" stroke-width="2" opacity="0.6"/>
    </g>
    
    <!-- Speech bubbles -->
    <path d="M200,80 Q210,80 210,90 L210,100 Q210,110 200,110 L180,110 L175,120 L170,110 L150,110 Q140,110 140,100 L140,90 Q140,80 150,80 Z" fill="#efc52a" opacity="0.8"/>
    <path d="M100,70 Q110,70 110,80 L110,90 Q110,100 100,100 L90,100 L85,110 L80,100 L70,100 Q60,100 60,90 L60,80 Q60,70 70,70 Z" fill="#4372c4" opacity="0.8"/>
    <path d="M110,210 Q120,210 120,220 L120,230 Q120,240 110,240 L90,240 L85,250 L80,240 L70,240 Q60,240 60,230 L60,220 Q60,210 70,210 Z" fill="#26a6db" opacity="0.8"/>
</svg>
