<?xml version="1.0" encoding="UTF-8"?>
<svg width="300px" height="300px" viewBox="0 0 300 300" version="1.1" xmlns="http://www.w3.org/2000/svg">
    <!-- Background Circle -->
    <circle cx="150" cy="150" r="120" fill="#FFFFFF" opacity="0.9"/>
    
    <!-- Trophy -->
    <path d="M125,80 L175,80 L175,95 C175,115 190,130 190,130 L175,130 C170,130 165,125 165,120 C165,125 160,130 155,130 L145,130 C140,130 135,125 135,120 C135,125 130,130 125,130 L110,130 C110,130 125,115 125,95 Z" fill="#efc52a"/>
    <rect x="140" y="130" width="20" height="40" fill="#efc52a"/>
    <path d="M125,170 L175,170 C175,170 180,180 175,190 L125,190 C120,180 125,170 125,170 Z" fill="#efc52a"/>
    <path d="M135,80 C135,70 133,60 125,60 L125,80 Z" fill="#efc52a"/>
    <path d="M165,80 C165,70 167,60 175,60 L175,80 Z" fill="#efc52a"/>
    
    <!-- Medals -->
    <circle cx="90" cy="150" r="25" fill="#c0c0c0"/> <!-- Silver -->
    <circle cx="90" cy="150" r="20" fill="#d6d6d6"/>
    <text x="90" y="155" font-family="Arial" font-size="16" font-weight="bold" text-anchor="middle">2</text>
    <path d="M90,175 L85,190 L90,185 L95,190 L90,175 Z" fill="#c0c0c0"/>
    
    <circle cx="210" cy="150" r="25" fill="#cd7f32"/> <!-- Bronze -->
    <circle cx="210" cy="150" r="20" fill="#dda077"/>
    <text x="210" y="155" font-family="Arial" font-size="16" font-weight="bold" text-anchor="middle">3</text>
    <path d="M210,175 L205,190 L210,185 L215,190 L210,175 Z" fill="#cd7f32"/>
    
    <!-- Stars -->
    <path d="M190,90 L195,100 L205,102 L198,110 L200,120 L190,115 L180,120 L182,110 L175,102 L185,100 Z" fill="#8044db" opacity="0.8"/>
    <path d="M110,90 L113,95 L119,96 L115,100 L116,106 L110,103 L104,106 L105,100 L101,96 L107,95 Z" fill="#4372c4" opacity="0.8"/>
    <path d="M90,210 L95,220 L105,222 L98,230 L100,240 L90,235 L80,240 L82,230 L75,222 L85,220 Z" fill="#26a6db" opacity="0.8"/>
    <path d="M210,210 L213,215 L219,216 L215,220 L216,226 L210,223 L204,226 L205,220 L201,216 L207,215 Z" fill="#efc52a" opacity="0.8"/>
    
    <!-- Coin stack -->
    <ellipse cx="150" cy="215" rx="30" ry="10" fill="#efc52a"/>
    <ellipse cx="150" cy="205" rx="30" ry="10" fill="#efc52a"/>
    <ellipse cx="150" cy="195" rx="30" ry="10" fill="#efc52a"/>
</svg>
