<?xml version="1.0" encoding="UTF-8"?>
<svg width="300px" height="300px" viewBox="0 0 300 300" version="1.1" xmlns="http://www.w3.org/2000/svg">
    <!-- Background Circle -->
    <circle cx="150" cy="150" r="120" fill="#FFFFFF" opacity="0.9"/>
    
    <!-- Greeting hand -->
    <path d="M150,90 C140,90 130,100 130,110 L130,150 L120,150 C110,150 105,160 105,170 C105,180 110,190 120,190 L165,190 C177,190 185,185 190,165 L200,120 C201,115 198,110 193,110 C188,110 185,115 184,120 L180,135 C179,138 176,138 175,135 L172,120 C171,115 168,110 163,110 C158,110 155,115 154,120 L152,130 C151,133 148,133 147,130 L144,120 C143,115 140,110 135,110 C130,110 127,115 126,120 L124,130 C123,133 120,133 119,130 L117,120 C116,115 113,110 108,110 C103,110 100,115 99,120 L99,120 L140,120 L140,110 C140,105 145,100 150,100 L190,100 C200,100 200,90 190,90 L150,90 Z" fill="#4372c4"/>
    
    <!-- Abstract decorative elements -->
    <circle cx="100" cy="75" r="15" fill="#4372c4" opacity="0.6"/>
    <circle cx="200" cy="75" r="10" fill="#4372c4" opacity="0.4"/>
    <circle cx="230" cy="120" r="12" fill="#4372c4" opacity="0.5"/>
    <circle cx="80" cy="200" r="18" fill="#4372c4" opacity="0.3"/>
    <circle cx="210" cy="190" r="14" fill="#4372c4" opacity="0.7"/>
    
    <!-- Stars -->
    <path d="M90,120 L95,130 L105,132 L98,140 L100,150 L90,145 L80,150 L82,140 L75,132 L85,130 Z" fill="#efc52a"/>
    <path d="M210,150 L213,155 L219,156 L215,160 L216,166 L210,163 L204,166 L205,160 L201,156 L207,155 Z" fill="#8044db"/>
</svg>
