<svg width="24" height="24" viewBox="0 0 24 24" xmlns="http://www.w3.org/2000/svg">
  <defs>
    <linearGradient id="listenGradient" x1="0%" y1="0%" x2="100%" y2="100%">
      <stop offset="0%" stop-color="#4372c4"/>
      <stop offset="100%" stop-color="#5a8ad6"/>
    </linearGradient>
    <filter id="dropShadow">
      <feDropShadow dx="0" dy="1" stdDeviation="0.5" flood-opacity="0.3"/>
    </filter>
  </defs>
  <!-- Base headphone shape with rounded edges -->
  <path d="M3 18V12C3 7.02944 7.02944 3 12 3C16.9706 3 21 7.02944 21 12V18" 
        stroke="url(#listenGradient)" stroke-width="2.5" stroke-linecap="round"/>
  <!-- Left ear cup with gradient fill -->
  <path d="M3 19C3 20.1046 3.89543 21 5 21C6.10457 21 7 20.1046 7 19V16C7 14.8954 6.10457 14 5 14C3.89543 14 3 14.8954 3 16V19Z" 
        fill="url(#listenGradient)" filter="url(#dropShadow)"/>
  <!-- Right ear cup with gradient fill -->
  <path d="M21 19C21 20.1046 20.1046 21 19 21C17.8954 21 17 20.1046 17 19V16C17 14.8954 17.8954 14 19 14C20.1046 14 21 14.8954 21 16V19Z" 
        fill="url(#listenGradient)" filter="url(#dropShadow)"/>
  <!-- Sound wave decorative element in brand green -->
  <path d="M12 8V16" stroke="#8cd81b" stroke-width="2" stroke-linecap="round"/>
  <path d="M9 10V14" stroke="#8cd81b" stroke-width="1.5" stroke-linecap="round"/>
  <path d="M15 10V14" stroke="#8cd81b" stroke-width="1.5" stroke-linecap="round"/>
</svg>
