<svg width="24" height="24" viewBox="0 0 24 24"
     fill="none" stroke="#4372c4" stroke-width="2.5"
     stroke-linecap="round" stroke-linejoin="round"
     xmlns="http://www.w3.org/2000/svg">
  <path d="M3 18V12C3 7.02944 7.02944 3 12 3C16.9706 3 21 7.02944 21 12V18"></path>
  <path d="M21 19C21 20.1046 20.1046 21 19 21C17.8954 21 17 20.1046 17 19V16C17 14.8954 17.8954 14 19 14C20.1046 14 21 14.8954 21 16V19Z"></path>
  <path d="M3 19C3 20.1046 3.89543 21 5 21C6.10457 21 7 20.1046 7 19V16C7 14.8954 6.10457 14 5 14C3.89543 14 3 14.8954 3 16V19Z"></path>
</svg>
