<svg width="24" height="24" viewBox="0 0 24 24" xmlns="http://www.w3.org/2000/svg">
  <!-- Drop shadow filter -->
  <defs>
    <linearGradient id="quizGradient" x1="0%" y1="0%" x2="100%" y2="100%">
      <stop offset="0%" stop-color="#4372c4"/>
      <stop offset="100%" stop-color="#5a8ad6"/>
    </linearGradient>
    <filter id="dropShadow">
      <feDropShadow dx="0" dy="1" stdDeviation="0.5" flood-opacity="0.3"/>
    </filter>
    <!-- Add glow filter for hover/active states -->
    <filter id="glow" x="-20%" y="-20%" width="140%" height="140%">
      <feGaussianBlur stdDeviation="1" result="blur"/>
      <feFlood flood-color="#8cd81b" flood-opacity="0.6" result="color"/>
      <feComposite in="color" in2="blur" operator="in" result="glowBlur"/>
      <feComposite in="SourceGraphic" in2="glowBlur" operator="over"/>
    </filter>
  </defs>
  
  <!-- Stylized quiz/test document with animation -->
  <path d="M7 3 C5.89543 3 5 3.89543 5 5 L5 19 C5 20.1046 5.89543 21 7 21 L17 21 C18.1046 21 19 20.1046 19 19 L19 5 C19 3.89543 18.1046 3 17 3 L7 3 Z"
        fill="url(#quizGradient)" stroke-width="0.5" stroke="#3060a8" stroke-linecap="round" stroke-linejoin="round" filter="url(#dropShadow)">
    <!-- Animation for the document appearing -->
    <animate attributeName="opacity" from="0" to="1" dur="0.4s" fill="freeze" />
    <animateTransform attributeName="transform" type="translateY" from="5" to="0" dur="0.4s" fill="freeze"/>
  </path>
  
  <!-- Quiz question lines with staggered animation -->
  <rect x="8" y="7" width="8" height="1" rx="0.5" fill="#8cd81b">
    <animate attributeName="width" from="0" to="8" dur="0.3s" begin="0.4s" fill="freeze" />
  </rect>
  <rect x="8" y="9.5" width="6" height="1" rx="0.5" fill="#8cd81b">
    <animate attributeName="width" from="0" to="6" dur="0.3s" begin="0.6s" fill="freeze" />
  </rect>
  
  <!-- Multiple choice options with animation -->
  <circle cx="8.5" cy="13" r="0.8" fill="#8cd81b">
    <animate attributeName="r" from="0" to="0.8" dur="0.2s" begin="0.8s" fill="freeze" />
    <!-- Add a check mark effect -->
    <animate attributeName="fill" values="#8cd81b;#90ff20;#8cd81b" dur="2s" begin="1s" repeatCount="indefinite"/>
  </circle>
  <rect x="10" y="12.5" width="5" height="1" rx="0.5" fill="#ffffff" opacity="0.7">
    <animate attributeName="width" from="0" to="5" dur="0.2s" begin="0.9s" fill="freeze" />
  </rect>
  
  <circle cx="8.5" cy="15.5" r="0.8" fill="#ffffff" opacity="0.5">
    <animate attributeName="r" from="0" to="0.8" dur="0.2s" begin="1s" fill="freeze" />
  </circle>
  <rect x="10" y="15" width="4" height="1" rx="0.5" fill="#ffffff" opacity="0.7">
    <animate attributeName="width" from="0" to="4" dur="0.2s" begin="1.1s" fill="freeze" />
  </rect>
  
  <circle cx="8.5" cy="18" r="0.8" fill="#ffffff" opacity="0.5">
    <animate attributeName="r" from="0" to="0.8" dur="0.2s" begin="1.2s" fill="freeze" />
  </circle>
  <rect x="10" y="17.5" width="3" height="1" rx="0.5" fill="#ffffff" opacity="0.7">
    <animate attributeName="width" from="0" to="3" dur="0.2s" begin="1.3s" fill="freeze" />
  </rect>
</svg>
